<svg id="visual" viewBox="0 0 900 600" width="900" height="600" xmlns="http://www.w3.org/2000/svg" xmlns:xlink="http://www.w3.org/1999/xlink" version="1.1"><rect x="0" y="0" width="900" height="600" fill="#C4C5BA"></rect><defs><linearGradient id="grad1_0" x1="33.3%" y1="100%" x2="100%" y2="0%"><stop offset="20%" stop-color="#595f39" stop-opacity="1"></stop><stop offset="80%" stop-color="#595f39" stop-opacity="1"></stop></linearGradient></defs><defs><linearGradient id="grad1_1" x1="33.3%" y1="100%" x2="100%" y2="0%"><stop offset="20%" stop-color="#595f39" stop-opacity="1"></stop><stop offset="80%" stop-color="#7c7f62" stop-opacity="1"></stop></linearGradient></defs><defs><linearGradient id="grad1_2" x1="33.3%" y1="100%" x2="100%" y2="0%"><stop offset="20%" stop-color="#9fa28d" stop-opacity="1"></stop><stop offset="80%" stop-color="#7c7f62" stop-opacity="1"></stop></linearGradient></defs><defs><linearGradient id="grad1_3" x1="33.3%" y1="100%" x2="100%" y2="0%"><stop offset="20%" stop-color="#9fa28d" stop-opacity="1"></stop><stop offset="80%" stop-color="#c4c5ba" stop-opacity="1"></stop></linearGradient></defs><defs><linearGradient id="grad2_0" x1="0%" y1="100%" x2="66.7%" y2="0%"><stop offset="20%" stop-color="#595f39" stop-opacity="1"></stop><stop offset="80%" stop-color="#595f39" stop-opacity="1"></stop></linearGradient></defs><defs><linearGradient id="grad2_1" x1="0%" y1="100%" x2="66.7%" y2="0%"><stop offset="20%" stop-color="#7c7f62" stop-opacity="1"></stop><stop offset="80%" stop-color="#595f39" stop-opacity="1"></stop></linearGradient></defs><defs><linearGradient id="grad2_2" x1="0%" y1="100%" x2="66.7%" y2="0%"><stop offset="20%" stop-color="#7c7f62" stop-opacity="1"></stop><stop offset="80%" stop-color="#9fa28d" stop-opacity="1"></stop></linearGradient></defs><defs><linearGradient id="grad2_3" x1="0%" y1="100%" x2="66.7%" y2="0%"><stop offset="20%" stop-color="#c4c5ba" stop-opacity="1"></stop><stop offset="80%" stop-color="#9fa28d" stop-opacity="1"></stop></linearGradient></defs><g transform="translate(900, 600)"><path d="M-488 0C-479.6 -85.9 -471.1 -171.8 -434.7 -251C-398.4 -330.2 -334 -402.6 -256.9 -445C-179.8 -487.3 -89.9 -499.7 0 -512L0 0Z" fill="#b2b3a3"></path><path d="M-366 0C-359.7 -64.4 -353.4 -128.9 -326.1 -188.3C-298.8 -247.6 -250.5 -301.9 -192.7 -333.7C-134.8 -365.5 -67.4 -374.7 0 -384L0 0Z" fill="#8d9077"></path><path d="M-244 0C-239.8 -43 -235.6 -85.9 -217.4 -125.5C-199.2 -165.1 -167 -201.3 -128.4 -222.5C-89.9 -243.7 -44.9 -249.8 0 -256L0 0Z" fill="#6a6f4d"></path><path d="M-122 0C-119.9 -21.5 -117.8 -43 -108.7 -62.8C-99.6 -82.5 -83.5 -100.6 -64.2 -111.2C-44.9 -121.8 -22.5 -124.9 0 -128L0 0Z" fill="#595f39"></path></g><g transform="translate(0, 0)"><path d="M497 0C480.7 84.3 464.5 168.6 426.1 246C387.7 323.4 327.2 393.9 252.5 437.3C177.8 480.8 88.9 497.3 0 513.8L0 0Z" fill="#b2b3a3"></path><path d="M372.8 0C360.6 63.2 348.4 126.5 319.6 184.5C290.8 242.5 245.4 295.4 189.4 328C133.3 360.6 66.7 373 0 385.3L0 0Z" fill="#8d9077"></path><path d="M248.5 0C240.4 42.2 232.2 84.3 213 123C193.9 161.7 163.6 196.9 126.3 218.7C88.9 240.4 44.4 248.7 0 256.9L0 0Z" fill="#6a6f4d"></path><path d="M124.3 0C120.2 21.1 116.1 42.2 106.5 61.5C96.9 80.8 81.8 98.5 63.1 109.3C44.4 120.2 22.2 124.3 0 128.4L0 0Z" fill="#595f39"></path></g></svg>