<?xml version="1.0" standalone="no"?>
<!DOCTYPE svg PUBLIC "-//W3C//DTD SVG 20010904//EN"
 "http://www.w3.org/TR/2001/REC-SVG-20010904/DTD/svg10.dtd">
<svg version="1.0" xmlns="http://www.w3.org/2000/svg"
 width="500px" height="500px" viewBox="0 0 500.000000 500.000000"
 preserveAspectRatio="xMidYMid meet">

<g transform="translate(0.000000,500.000000) scale(0.100000,-0.100000)"
fill="#ffffff" stroke="none">
<path d="M2280 2842 c0 -4 17 -16 37 -27 21 -11 57 -40 81 -64 l43 -43 -37
-32 c-40 -34 -49 -76 -22 -103 13 -13 21 -12 67 2 48 16 54 16 103 0 49 -16
53 -16 65 1 7 10 13 28 13 41 0 24 -40 73 -60 73 -35 0 39 86 105 121 25 13
45 27 45 31 0 31 -119 -46 -158 -102 -23 -33 -33 -39 -63 -40 -29 0 -40 6 -54
27 -25 38 -74 81 -117 104 -41 21 -48 23 -48 11z"/>
<path d="M2225 2744 c19 -25 35 -54 35 -65 0 -10 4 -19 9 -19 5 0 16 -3 25 -6
9 -3 16 -1 16 5 0 6 -6 11 -14 11 -8 0 -18 12 -24 28 -11 31 -59 92 -73 92 -5
0 7 -21 26 -46z"/>
<path d="M2756 2756 c-14 -19 -30 -46 -36 -60 -5 -14 -14 -26 -20 -26 -5 0
-10 -4 -10 -9 0 -5 9 -7 20 -4 11 3 20 11 20 18 0 7 16 36 35 64 39 57 32 70
-9 17z"/>
<path d="M1657 2720 c-43 -13 -57 -29 -57 -68 0 -45 43 -113 113 -180 59 -55
92 -74 153 -91 34 -9 54 -7 120 11 51 13 127 23 214 28 l135 7 -125 1 c-96 1
-142 -3 -200 -18 -41 -11 -91 -20 -110 -20 -51 0 -113 32 -175 91 -94 88 -136
174 -103 207 13 13 32 17 25 5 -3 -5 18 -7 47 -5 59 4 137 -14 246 -57 87 -35
84 -36 -30 -16 -47 8 -121 14 -165 13 -53 -1 -63 -3 -30 -5 122 -8 219 -25
242 -42 23 -19 22 -19 -61 -14 -50 4 -104 1 -135 -7 -70 -16 -60 -21 19 -10
36 5 94 7 130 3 l65 -6 -44 -19 c-31 -13 -59 -17 -90 -14 -25 3 -37 3 -26 0
46 -12 47 -12 28 -41 l-18 -28 33 28 c39 31 45 33 63 11 11 -13 10 -17 -4 -25
-9 -6 -17 -14 -17 -20 0 -5 11 -2 25 7 28 19 159 24 310 12 65 -5 79 -4 50 3
-22 5 -107 12 -190 15 -108 3 -154 9 -164 19 -12 11 -8 15 25 24 57 16 96 14
227 -14 111 -24 156 -30 146 -21 -2 2 -68 18 -145 34 -78 17 -159 40 -180 51
l-39 21 55 -7 c30 -3 79 -14 109 -25 30 -10 64 -18 77 -18 12 0 44 -9 70 -20
26 -11 52 -19 57 -17 10 3 -207 99 -378 167 -74 30 -203 60 -250 59 -11 0 -33
-5 -48 -9z m228 -38 c85 -29 237 -94 232 -99 -3 -2 -40 10 -83 28 -156 62
-220 81 -304 89 l-85 9 90 -4 c57 -1 112 -10 150 -23z"/>
<path d="M3190 2716 c-75 -16 -142 -41 -330 -121 -74 -32 -150 -64 -169 -72
-18 -8 -31 -16 -28 -19 3 -3 22 2 43 12 22 9 56 18 78 21 21 2 62 13 90 23 46
16 146 33 146 24 0 -13 -76 -37 -205 -65 -83 -19 -143 -35 -134 -37 8 -1 68 9
133 23 147 31 242 31 253 -2 6 -18 -22 -22 -172 -28 -77 -3 -158 -9 -180 -14
-29 -7 -15 -8 50 -3 152 12 281 7 313 -12 l27 -17 -22 19 c-21 19 -21 20 -5
35 16 15 21 15 52 -5 l35 -20 -19 20 c-18 21 -18 21 5 26 58 13 60 15 9 11
-39 -3 -67 1 -95 14 l-40 18 70 6 c39 4 95 3 125 -2 68 -11 77 -6 19 9 -26 8
-79 10 -131 7 -85 -4 -87 -4 -65 13 23 18 127 37 237 43 38 2 29 4 -30 5 -47
1 -121 -5 -164 -13 -44 -8 -81 -13 -83 -11 -7 6 151 65 208 77 29 6 74 9 102
6 36 -3 45 -2 32 6 -10 5 -52 7 -94 5 -63 -4 -103 -16 -235 -67 -87 -34 -160
-61 -162 -59 -4 5 170 79 256 109 39 13 99 24 151 27 79 4 89 2 109 -18 28
-28 22 -56 -27 -128 -65 -96 -172 -172 -241 -172 -17 0 -68 9 -114 20 -62 15
-113 19 -203 18 l-120 -1 130 -7 c78 -4 165 -16 216 -29 77 -19 90 -20 131 -7
112 33 258 188 258 273 0 61 -85 85 -210 59z"/>
<path d="M2268 2628 c6 -24 91 -117 92 -101 0 7 -9 27 -20 45 -11 18 -20 40
-20 49 0 11 -11 18 -29 21 -23 3 -27 1 -23 -14z"/>
<path d="M2705 2642 c-23 -4 -82 -112 -61 -112 16 0 50 37 71 78 18 38 18 39
-10 34z"/>
<path d="M2412 2551 c-88 -56 -97 -166 -17 -233 17 -15 18 -17 3 -18 -24 0
-85 -75 -102 -128 -32 -93 -10 -243 46 -327 33 -48 81 -95 112 -112 117 -61
281 168 263 368 -5 60 -30 117 -73 169 -23 27 -32 31 -57 26 l-30 -6 34 23
c20 14 41 40 53 69 18 45 19 48 2 92 -24 63 -64 89 -141 94 -47 2 -67 -1 -93
-17z m83 -196 c28 0 50 7 64 19 12 11 21 14 21 8 0 -20 -44 -42 -82 -42 -25 0
-45 7 -60 23 -13 12 -15 15 -5 7 11 -8 38 -15 62 -15z m-6 -71 c10 -9 -45 -3
-59 6 -11 7 -5 8 20 4 19 -4 37 -8 39 -10z m54 -1 c-7 -2 -19 -2 -25 0 -7 3
-2 5 12 5 14 0 19 -2 13 -5z m104 -157 c-28 -12 -263 -12 -299 0 -19 6 31 9
147 9 116 0 167 -3 152 -9z m-5 -109 c-34 -10 -246 -10 -290 0 -19 5 40 8 142
8 102 0 164 -3 148 -8z m-17 -108 c-38 -8 -211 -9 -249 0 -16 3 40 6 125 6 85
0 141 -2 124 -6z m-102 -96 c-13 -2 -35 -2 -50 0 -16 2 -5 4 22 4 28 0 40 -2
28 -4z"/>
<path d="M2190 2393 c-14 -2 -80 -22 -148 -44 -173 -57 -252 -115 -254 -187
-2 -61 53 -92 165 -92 76 0 118 21 161 79 53 71 85 97 170 135 44 20 77 39 73
42 -3 3 -45 -14 -94 -38 -74 -36 -96 -53 -142 -108 -73 -89 -99 -102 -182 -97
-143 9 -179 73 -89 158 65 62 251 123 309 101 21 -8 8 -15 -100 -56 -68 -25
-110 -44 -94 -41 58 10 365 129 362 139 -4 11 -93 17 -137 9z m61 -32 c-36
-15 -51 -16 -80 -7 -33 10 -33 11 -10 17 13 4 49 7 79 7 l55 1 -44 -18z"/>
<path d="M2666 2392 c-3 -6 -2 -13 3 -16 25 -16 365 -136 374 -133 6 2 -36 20
-94 41 -129 46 -139 51 -109 61 73 23 289 -62 335 -132 20 -29 23 -77 6 -97
-14 -17 -87 -36 -139 -36 -69 0 -99 18 -163 96 -53 65 -70 79 -145 115 -47 22
-90 39 -95 37 -6 -2 30 -23 80 -46 81 -38 96 -50 146 -112 67 -84 98 -102 176
-101 153 0 209 63 141 157 -36 50 -98 83 -241 128 -118 39 -262 58 -275 38z
m173 -21 c23 -6 23 -7 -10 -17 -29 -9 -44 -8 -80 7 l-44 18 55 -1 c30 0 66 -3
79 -7z"/>
<path d="M2240 2319 c-58 -23 -154 -59 -213 -80 -104 -38 -156 -65 -157 -82 0
-5 13 1 28 11 27 20 144 64 150 57 2 -2 -7 -23 -19 -46 -14 -29 -17 -39 -7
-31 8 6 23 29 32 51 17 35 25 41 119 79 56 22 119 46 140 53 20 7 37 17 37 21
0 10 11 14 -110 -33z"/>
<path d="M2665 2340 c11 -5 75 -30 143 -56 67 -26 122 -51 122 -57 0 -15 51
-99 57 -94 2 3 -5 23 -16 46 -12 22 -21 42 -21 45 0 8 110 -32 149 -54 l36
-21 -27 25 c-14 13 -48 32 -75 41 -26 10 -116 44 -200 77 -83 32 -160 58 -170
57 -16 0 -16 -1 2 -9z"/>
<path d="M2270 2231 c-45 -48 -102 -148 -115 -203 -7 -27 -5 -28 28 -28 33 0
34 1 40 45 7 47 44 129 81 180 35 47 38 55 25 55 -7 0 -34 -22 -59 -49z"/>
<path d="M2660 2275 c0 -2 18 -30 40 -61 36 -52 59 -109 75 -186 5 -24 10 -28
41 -28 32 0 35 2 29 23 -16 58 -78 167 -119 210 -40 41 -66 58 -66 42z"/>
<path d="M2159 1983 c-1 -5 -1 -12 0 -17 5 -22 -32 -97 -56 -116 -14 -10 -23
-25 -20 -32 7 -22 65 49 84 103 12 34 23 49 35 49 10 0 18 5 18 10 0 11 -59
14 -61 3z"/>
<path d="M2780 1982 c0 -5 9 -12 20 -15 11 -3 20 -12 20 -21 0 -25 35 -88 64
-115 38 -35 45 -17 9 22 -40 42 -55 72 -51 105 3 24 -1 27 -29 30 -18 2 -33
-1 -33 -6z"/>
</g>
</svg>
