<svg id="visual" viewBox="0 0 900 600" width="900" height="600" xmlns="http://www.w3.org/2000/svg" xmlns:xlink="http://www.w3.org/1999/xlink" version="1.1"><path d="M0 127L900 121L900 0L0 0Z" fill="#595f39"></path><path d="M0 151L900 145L900 119L0 125Z" fill="#626844"></path><path d="M0 217L900 193L900 143L0 149Z" fill="#6c704f"></path><path d="M0 253L900 229L900 191L0 215Z" fill="#75795a"></path><path d="M0 325L900 313L900 227L0 251Z" fill="#7f8266"></path><path d="M0 433L900 397L900 311L0 323Z" fill="#888b71"></path><path d="M0 457L900 427L900 395L0 431Z" fill="#92957d"></path><path d="M0 475L900 451L900 425L0 455Z" fill="#9c9e89"></path><path d="M0 505L900 493L900 449L0 473Z" fill="#a6a895"></path><path d="M0 553L900 547L900 491L0 503Z" fill="#b0b1a1"></path><path d="M0 583L900 577L900 545L0 551Z" fill="#babbad"></path><path d="M0 601L900 601L900 575L0 581Z" fill="#c4c5ba"></path></svg>